<?xml version="1.0" encoding="UTF-8"?>
<svg id="BigBottle" xmlns="http://www.w3.org/2000/svg" viewBox="0 0 176.75 395">
  <defs>
    <style>
      .cls-1 {
        fill: #270400;
      }

      .cls-2 {
        fill: #ceac93;
      }

      .cls-3 {
        fill: #fff;
        opacity: .2;
      }

      .cls-4 {
        fill: #e0ddce;
      }

      .cls-5 {
        fill: #dbc2b4;
      }

      .cls-6 {
        fill: #491d1a;
      }
    </style>
    
  </defs>
  <path id="Body" class="cls-6" d="m155.29,262.91c-1.08,32.48-1.64,65.36-4.17,97.74-.4,5.07-.42,10.15-4.05,13.75-8.75,8.68-15.56-1.45-22.71-5.79-13.79-8.36-22.94,7.83-34.71,8.62v.03c-.05,0-.1,0-.15-.01-.05,0-.1.01-.15.01v-.03c-11.78-.79-20.92-16.98-34.71-8.62-7.15,4.33-13.95,14.47-22.71,5.79-3.64-3.61-3.66-8.68-4.05-13.75-2.53-32.38-3.09-65.25-4.17-97.74-1.15-34.7-4.67-69.6-2.83-104.36,1.07-20.08,4.7-42.02,19.85-56.79,11.17-10.89,36.33-25.7,28.38-45.11h40.8c-7.95,19.41,17.21,34.22,28.38,45.11,15.14,14.77,18.78,36.71,19.85,56.79,1.85,34.75-1.67,69.65-2.83,104.36Z"/>
  <rect id="Lid" class="cls-5" x="61.64" y="25.65" width="54" height="31" rx="7" ry="7"/>
  <path id="Shade" class="cls-2" d="m115.64,47.65v2c0,3.87-3.13,7-7,7h-40c-3.87,0-7-3.13-7-7v-2h54Z"/>
  <path id="Liquid" class="cls-1" d="m146.6,165.03c1.19,22.4-.05,45.4-1.25,67.64-.53,9.89-1.08,20.11-1.42,30.18-.21,6.43-.41,12.88-.6,19.34-.71,23.87-1.45,48.55-3.32,72.52l-.1,1.35c-.27,3.78-.5,6.16-1.79,7.44-.97.96-1.65,1.3-1.97,1.3-1.28,0-4.15-2.3-6.04-3.82-1.68-1.34-3.41-2.73-5.33-3.89-3.51-2.13-7.18-3.21-10.9-3.21-6.63,0-11.97,3.32-16.68,6.24-3.17,1.97-6.17,3.83-8.72,4.12-2.55-.29-5.55-2.16-8.71-4.12-4.71-2.93-10.05-6.24-16.68-6.24-3.72,0-7.38,1.08-10.9,3.21-1.92,1.16-3.65,2.55-5.33,3.9-1.9,1.52-4.76,3.82-6.04,3.82-.32,0-1-.34-1.97-1.3-1.29-1.28-1.52-3.66-1.79-7.44l-.1-1.35c-1.87-23.96-2.61-48.65-3.32-72.52-.19-6.46-.38-12.91-.6-19.34-.33-10.07-.89-20.29-1.42-30.18-1.2-22.24-2.44-45.24-1.25-67.64.52-9.82,1.72-21.12,5.55-31.37h105.12c3.83,10.25,5.03,21.56,5.55,31.37Z"/>
  <path id="Highlights" class="cls-3" d="m79.64,87.65s-44,31-42,102h16s-10-57,26-102Z"/>
  <path id="Label" class="cls-2" d="m18.45,185.65c.48,24.44,2.49,48.9,3.32,73.26.17,4.91.32,9.82.47,14.74h133.51c.15-4.92.3-9.84.47-14.74.83-24.36,2.84-48.82,3.32-73.26H18.45Z"/>
  <g id="Bubbles">
    <path class="cls-4" d="m71.96,235.8c0,5.8-4.62,10.5-10.32,10.5s-10.32-4.7-10.32-10.5,4.62-10.5,10.32-10.5,10.32,4.7,10.32,10.5Z"/>
    <path class="cls-4" d="m58.07,210.75c0,4.69-3.73,8.48-8.33,8.48s-8.33-3.8-8.33-8.48,3.73-8.48,8.33-8.48,8.33,3.8,8.33,8.48Z"/>
    <path class="cls-4" d="m82.68,213.98c0,4.69-3.73,8.48-8.33,8.48s-8.33-3.8-8.33-8.48,3.73-8.48,8.33-8.48,8.33,3.8,8.33,8.48Z"/>
    <path class="cls-4" d="m97.31,230.14c0,3.99-3.18,7.22-7.09,7.22s-7.09-3.23-7.09-7.22,3.18-7.22,7.09-7.22,7.09,3.23,7.09,7.22Z"/>
    <path class="cls-4" d="m106.84,208.32c0,2.65-2.11,4.8-4.71,4.8s-4.71-2.15-4.71-4.8,2.11-4.8,4.71-4.8,4.71,2.15,4.71,4.8Z"/>
    <path class="cls-4" d="m67.6,200.25c0,2.45-1.95,4.44-4.37,4.44s-4.37-1.99-4.37-4.44,1.95-4.44,4.37-4.44,4.37,1.99,4.37,4.44Z"/>
  </g>
</svg>