<?xml version="1.0" encoding="UTF-8"?>
<svg id="Bub" data-name="Bub" xmlns="http://www.w3.org/2000/svg" viewBox="0 0 111.18 299.94">
  <g id="Bub">
    <path id="BodyBub" d="m98.58,107.61c-24.57-29.49-21.36-63.24-21.86-85.83h-42.27c-.5,22.6,2.72,56.34-21.86,85.83-29.25,35.1.68,167.01,7.45,189.51h71.09c6.77-22.5,36.7-154.42,7.45-189.51Z" style="fill: #d3ccbe;"/>
    <path id="TopBub" d="m80.23,21.78c0,1.88-1.42,3.4-3.18,3.4h-42.93c-1.76,0-3.18-1.52-3.18-3.4h0c0-1.88,1.42-3.4,3.18-3.4h42.93c1.76,0,3.18,1.52,3.18,3.4h0Z" style="fill: #ce4e28;"/>
    <g id="LidBub">
      <path d="m84.11,10.73c0,4.22-2.99,7.65-6.67,7.65h-43.71c-3.68,0-6.67-3.42-6.67-7.65h0c0-4.22,2.99-7.65,6.67-7.65h43.71c3.68,0,6.67,3.42,6.67,7.65h0Z" style="fill: #ed6b43;"/>
      <rect x="26.69" width="57.79" height="9.56" style="fill: #ed6b43;"/>
    </g>
    <path id="BottomBub" d="m96.07,295.81c0,2.28-1.66,4.12-3.7,4.12H19.64c-2.05,0-3.71-1.85-3.71-4.12h0c0-2.28,1.66-4.12,3.71-4.12h72.73c2.04,0,3.7,1.85,3.7,4.12h0Z" style="fill: #bcb5aa;"/>
    <path id="LiquidBub" d="m73.71,73.36h-36.24c-2.5,13.63-7.79,28-19.02,41.47-23.75,28.5-2.23,138.09,6.89,170.65h60.48c9.12-32.55,30.65-142.14,6.9-170.65-11.23-13.47-16.52-27.84-19.02-41.47Z" style="fill: #60232a;"/>
    <path id="LightBub" d="m66.72,120.91c-.43,2.62-2.9,4.41-5.52,3.98-2.62-.42-4.41-2.9-3.98-5.52.42-2.62,2.9-4.41,5.52-3.98,2.62.42,4.41,2.9,3.99,5.52Zm-19.17,64.84c-1.89-.3-3.67.98-3.98,2.87-.31,1.89.98,3.67,2.87,3.98,1.89.31,3.67-.98,3.98-2.87.31-1.89-.98-3.67-2.87-3.98Z" style="fill: #b44819;"/>
    <path id="MedBub" d="m57.91,159.37c-.42,2.62-2.9,4.41-5.52,3.98-2.62-.42-4.41-2.9-3.98-5.52.42-2.62,2.9-4.41,5.52-3.98,2.63.42,4.41,2.9,3.99,5.52Zm-13.72-52.22c-1.89-.31-3.67.98-3.98,2.87-.31,1.89.98,3.67,2.87,3.98,1.89.31,3.67-.98,3.98-2.87.31-1.89-.98-3.67-2.87-3.98Zm-2.5,65.11c-1.54-.25-2.98.79-3.23,2.33-.25,1.54.79,2.99,2.33,3.23,1.54.25,2.98-.8,3.23-2.33.25-1.54-.8-2.98-2.33-3.23Zm21.43-89.49c-1.54-.25-2.98.8-3.23,2.33-.25,1.54.8,2.99,2.33,3.23,1.54.25,2.98-.79,3.23-2.33.25-1.54-.8-2.98-2.33-3.23Z" style="fill: #8d251c;"/>
    <path id="TopBrown" d="m47.89,137.95c-.42,2.62-2.9,4.41-5.52,3.98-2.62-.42-4.41-2.9-3.98-5.52s2.9-4.41,5.52-3.98c2.63.42,4.41,2.9,3.99,5.52Zm-1.76-56.53c-2.62-.42-5.1,1.36-5.52,3.98-.42,2.62,1.36,5.1,3.98,5.52,2.62.43,5.1-1.36,5.52-3.98.42-2.62-1.36-5.1-3.98-5.52Zm10.62,58.54c-1.08-.17-2.1.56-2.27,1.64-.18,1.08.56,2.1,1.64,2.27,1.08.17,2.1-.56,2.27-1.64.17-1.08-.56-2.1-1.64-2.27Zm-4.51-27.13c-1.08-.17-2.1.56-2.27,1.64-.17,1.08.56,2.1,1.64,2.27s2.1-.56,2.27-1.64c.18-1.08-.56-2.1-1.64-2.27Zm9.48-23.14c-1.08-.17-2.1.56-2.27,1.64-.17,1.08.56,2.1,1.64,2.27,1.08.18,2.1-.56,2.27-1.64.17-1.08-.56-2.1-1.64-2.27Zm-21.05,29.02c-1.08-.18-2.1.56-2.27,1.64-.17,1.08.56,2.1,1.64,2.27,1.08.17,2.1-.56,2.27-1.64.17-1.08-.56-2.1-1.64-2.27Zm4.43,29.41c-1.08-.17-2.1.56-2.27,1.64-.17,1.08.56,2.1,1.64,2.28,1.08.17,2.1-.56,2.27-1.64.17-1.08-.56-2.1-1.64-2.27Zm6.28,17.95c-1.08-.17-2.1.56-2.27,1.64-.17,1.08.56,2.1,1.64,2.27,1.08.18,2.1-.56,2.27-1.64.17-1.08-.56-2.1-1.64-2.27Zm2.19-41.9c-1.89-.31-3.67.98-3.98,2.87-.31,1.89.98,3.67,2.87,3.98,1.89.31,3.67-.98,3.98-2.87.31-1.89-.98-3.67-2.87-3.98Zm4-25.18c-1.89-.31-3.67.98-3.98,2.87-.31,1.89.98,3.67,2.87,3.98,1.89.3,3.67-.98,3.98-2.87.31-1.89-.98-3.67-2.87-3.98Zm-14.6,57.46c-2.54-.41-4.88.98-5.22,3.11-.35,2.13,1.44,4.18,3.98,4.6,2.54.41,4.88-.98,5.22-3.11.34-2.13-1.44-4.18-3.98-4.59Zm5.36,21.48c-1.54-.25-2.98.8-3.23,2.33-.25,1.54.79,2.99,2.33,3.23,1.54.25,2.98-.79,3.23-2.33.25-1.54-.8-2.98-2.33-3.23Zm-8.96,16.34c-1.54-.25-2.99.8-3.23,2.33-.25,1.54.8,2.99,2.33,3.23,1.54.25,2.98-.79,3.23-2.33.25-1.54-.8-2.98-2.33-3.23Zm7.06-98.73c-2.62-.42-5.1,1.36-5.52,3.98-.42,2.62,1.36,5.1,3.98,5.52s5.1-1.36,5.52-3.99c.42-2.62-1.36-5.1-3.99-5.52Zm21.31,36.8c-2.54-.41-4.88.98-5.22,3.11-.34,2.13,1.44,4.19,3.98,4.6,2.54.41,4.88-.98,5.23-3.11.34-2.13-1.44-4.19-3.98-4.6Zm-19.88-8.38c-2.54-.41-4.88.98-5.22,3.11-.34,2.13,1.44,4.19,3.98,4.6,2.54.41,4.88-.98,5.23-3.11.34-2.13-1.44-4.19-3.98-4.6Zm10.51,59.67c-2.54-.41-4.88.98-5.22,3.11-.34,2.13,1.44,4.19,3.98,4.6,2.54.41,4.88-.98,5.22-3.11.34-2.13-1.44-4.18-3.98-4.59Zm-22.58-73.72c-1.46-.24-2.81.57-3.01,1.79-.2,1.23.83,2.42,2.29,2.65,1.47.24,2.81-.57,3.01-1.79.2-1.22-.83-2.41-2.29-2.65Zm17.62,4.57c-1.46-.24-2.81.57-3.01,1.79-.2,1.23.83,2.41,2.29,2.65,1.47.24,2.81-.56,3.01-1.79.2-1.23-.83-2.41-2.29-2.65Zm-14.77,27.45c-1.47-.24-2.81.57-3.01,1.79-.2,1.23.83,2.41,2.29,2.65,1.47.24,2.81-.56,3.01-1.79.2-1.23-.83-2.41-2.29-2.65Zm8.75,7.16c-1.46-.24-2.81.57-3.01,1.79-.2,1.23.83,2.42,2.29,2.65,1.47.24,2.82-.57,3.01-1.79.2-1.22-.83-2.41-2.29-2.65Z" style="fill: #44161d;"/>
    <g id="BottomBub-2" data-name="BottomBub">
      <path d="m47.33,222.67c.17,2.65-1.85,4.94-4.51,5.11-2.65.17-4.94-1.85-5.11-4.51-.17-2.65,1.85-4.94,4.51-5.11,2.65-.17,4.94,1.85,5.11,4.51Z" style="fill: #8d251c;"/>
      <path d="m26.09,178.02c.12,1.91-1.33,3.56-3.25,3.68-1.91.12-3.56-1.33-3.68-3.25-.12-1.91,1.33-3.56,3.25-3.68,1.91-.12,3.56,1.33,3.68,3.25Z" style="fill: #8d251c;"/>
      <path d="m37.35,241.46c.1,1.55-1.08,2.89-2.64,2.99-1.55.1-2.89-1.08-2.99-2.64-.1-1.55,1.08-2.89,2.64-2.99,1.55-.1,2.89,1.08,2.99,2.64Z" style="fill: #8d251c;"/>
      <path d="m38.49,149.44c.1,1.55-1.08,2.89-2.64,2.99-1.55.1-2.89-1.08-2.99-2.64-.1-1.55,1.08-2.89,2.64-2.99,1.55-.1,2.89,1.08,2.99,2.64Z" style="fill: #8d251c;"/>
      <path d="m47.42,183.22c.16,2.65-1.85,4.94-4.51,5.11-2.66.17-4.94-1.85-5.11-4.51-.17-2.65,1.85-4.94,4.51-5.11,2.65-.17,4.94,1.85,5.11,4.51Zm-4.38,67.47c-1.91.12-3.37,1.77-3.25,3.68.12,1.91,1.77,3.37,3.68,3.25,1.91-.12,3.37-1.76,3.25-3.68-.12-1.91-1.77-3.36-3.68-3.25Z" style="fill: #b44819;"/>
      <path id="BrownBubB" d="m32.82,204c.17,2.65-1.85,4.94-4.51,5.11-2.65.17-4.94-1.85-5.11-4.51-.17-2.65,1.85-4.94,4.51-5.11,2.65-.17,4.94,1.85,5.11,4.51Zm-14.2-54.74c-2.65.17-4.67,2.45-4.51,5.1.16,2.65,2.45,4.67,5.11,4.51,2.65-.17,4.67-2.45,4.51-5.11s-2.45-4.67-5.11-4.5Zm23.28,54.75c-1.09.07-1.92,1.01-1.85,2.1.07,1.09,1.01,1.92,2.1,1.86,1.09-.07,1.92-1.01,1.85-2.1-.07-1.09-1.01-1.92-2.1-1.85Zm-10.39-25.47c-1.09.07-1.92,1.01-1.86,2.1.07,1.09,1.01,1.92,2.1,1.86,1.09-.07,1.92-1.01,1.86-2.1-.07-1.09-1.01-1.92-2.1-1.86Zm4.14-24.67c-1.09.07-1.92,1.01-1.85,2.1.07,1.09,1.01,1.92,2.1,1.86,1.09-.07,1.92-1.01,1.86-2.1-.07-1.09-1.01-1.92-2.1-1.85Zm-14.12,32.95c-1.09.07-1.92,1.01-1.86,2.1.07,1.09,1.01,1.92,2.1,1.85,1.09-.07,1.92-1.01,1.86-2.1-.07-1.09-1.01-1.92-2.1-1.85Zm10.81,27.71c-1.09.07-1.92,1.01-1.85,2.1.07,1.09,1.01,1.92,2.1,1.86,1.09-.07,1.92-1.01,1.85-2.1-.07-1.09-1.01-1.92-2.1-1.85Zm10.09,16.12c-1.09.07-1.92,1.01-1.85,2.1.07,1.09,1.01,1.92,2.1,1.85,1.09-.07,1.92-1.01,1.86-2.1-.07-1.09-1.01-1.92-2.1-1.85Zm-7.12-41.35c-1.91.12-3.37,1.77-3.25,3.68.12,1.91,1.77,3.37,3.68,3.25,1.91-.12,3.37-1.77,3.25-3.68-.12-1.91-1.77-3.37-3.68-3.25Zm-1.66-25.44c-1.91.12-3.37,1.76-3.25,3.68.12,1.91,1.77,3.37,3.68,3.25,1.91-.12,3.37-1.76,3.25-3.68-.12-1.91-1.77-3.37-3.68-3.25Zm-1.55,59.27c-2.57.16-4.54,2.03-4.41,4.18.13,2.15,2.33,3.76,4.89,3.6,2.57-.16,4.54-2.03,4.41-4.18-.13-2.15-2.33-3.76-4.9-3.6Zm9.97,19.76c-1.55.1-2.74,1.43-2.64,2.99.1,1.56,1.44,2.74,2.99,2.64,1.55-.1,2.74-1.43,2.64-2.99-.1-1.55-1.44-2.73-2.99-2.64Zm-5.13,17.92c-1.55.1-2.74,1.44-2.64,2.99.1,1.55,1.44,2.74,2.99,2.64,1.55-.1,2.73-1.43,2.64-2.99-.1-1.55-1.44-2.73-2.99-2.64Zm-14.92-97.85c-2.65.17-4.67,2.45-4.51,5.11.16,2.65,2.45,4.67,5.11,4.51,2.65-.17,4.67-2.45,4.51-5.11-.16-2.65-2.45-4.67-5.11-4.51Zm28.91,31.18c-2.57.16-4.54,2.03-4.41,4.18.13,2.15,2.32,3.77,4.89,3.6,2.57-.16,4.54-2.03,4.41-4.18-.13-2.15-2.33-3.77-4.9-3.6Zm-21.24-3.78c-2.57.16-4.54,2.03-4.41,4.18.13,2.15,2.33,3.76,4.89,3.6,2.57-.16,4.55-2.03,4.41-4.18-.13-2.15-2.33-3.76-4.9-3.6Zm23.42,55.87c-2.57.16-4.55,2.03-4.41,4.18.13,2.15,2.33,3.77,4.9,3.6,2.57-.16,4.54-2.03,4.41-4.18-.13-2.15-2.33-3.76-4.9-3.6ZM14.82,179.3c-1.48.09-2.62,1.17-2.54,2.41.08,1.24,1.34,2.17,2.82,2.08,1.48-.09,2.62-1.17,2.54-2.41-.08-1.24-1.34-2.17-2.82-2.08Zm18.2.57c-1.48.09-2.62,1.17-2.54,2.41.08,1.24,1.34,2.17,2.82,2.08,1.48-.09,2.62-1.17,2.54-2.41-.08-1.24-1.34-2.17-2.82-2.08Zm-8.35,30.04c-1.48.09-2.62,1.17-2.54,2.41.08,1.24,1.34,2.17,2.82,2.08,1.48-.09,2.62-1.17,2.54-2.41-.08-1.24-1.34-2.17-2.82-2.08Zm10.11,5.05c-1.48.09-2.62,1.17-2.54,2.41.08,1.24,1.34,2.17,2.82,2.08,1.48-.09,2.62-1.17,2.54-2.42-.08-1.24-1.34-2.17-2.82-2.08Z" style="fill: #44161d;"/>
    </g>
    <path id="Lightbub" d="m37.98,112.3c22.82-48.03,11.77-86.27,11.77-86.27h-5.95s4.92,50.61-16.15,84.98c-32.29,52.69-1.7,120.68,5.95,181.01h11.9s-36.91-117.89-7.52-179.73Z" style="fill: #fff; opacity: .3;"/>
    <path id="Highlightbub" d="m65.9,26.03h-8.5c-2.26,67.57,28.89,90.93,28.89,90.93-22.1-46.74-20.4-90.93-20.4-90.93Z" style="fill: #fff; opacity: .2;"/>
    <path id="LabelBub" d="m95.28,208.74c2.23-24.46,3.22-49.63,1.2-69.69H13.85c-2.02,20.05-1.03,45.23,1.2,69.69h80.23Z" style="fill: #dbc2b4;"/>
  </g>
</svg>