<?xml version="1.0" encoding="UTF-8"?>
<svg id="Medium" data-name="Layer 2" xmlns="http://www.w3.org/2000/svg" viewBox="0 0 114.82 248.13">
  <g id="Medium">
    <path id="BodyM" d="m108.91,243.55c0,2.53-2.24,4.58-5,4.58H10.91c-2.76,0-5-2.05-5-4.58s42-4.58,42-4.58v-19.85c-26.84-2.79-51.09-16.11-47.57-41.98,3.16-23.18,17.42-44.74,19.66-68.08,1.26-13.16-5.25-23.44-7.85-34.93h90.67c-2.6,11.49-9.12,21.76-7.85,34.93,2.24,23.34,16.51,44.9,19.66,68.08,1.51,11.11-6.89,28.88-18.05,34.62-8.12,4.18-18.61,6.76-29.68,7.61v19.6s42,2.05,42,4.58Z" style="fill: #d3ccbe;"/>
    <path id="LiquidM" d="m95.5,143.1c7.8,19.98,15.88,40.63,1.84,54.56-7.62,7.56-22.66,12.25-39.25,12.25-5.42,0-10.73-.5-15.79-1.48-8.31-1.61-35.16-8.72-31.91-32.56,1.31-9.61,4.81-18.84,8.51-28.61,4.01-10.58,8.16-21.52,9.26-32.99.21-2.17.21-4.25.05-6.26h58.57c-.15,2.01-.15,4.09.05,6.26.85,8.82,4.64,18.54,8.66,28.83Z" style="fill: #3d0506;"/>
    <g id="BubblesM">
      <path d="m54.82,176.46c0,3.13-2.46,5.67-5.5,5.67s-5.5-2.54-5.5-5.67,2.46-5.67,5.5-5.67,5.5,2.54,5.5,5.67Z" style="fill: #44161d;"/>
      <path d="m72.93,153.13c0,3.13-2.46,5.67-5.5,5.67s-5.5-2.54-5.5-5.67,2.46-5.67,5.5-5.67,5.5,2.54,5.5,5.67Z" style="fill: #b44819;"/>
      <path d="m70.02,199.46c0,3.13-2.46,5.67-5.5,5.67s-5.5-2.54-5.5-5.67,2.46-5.67,5.5-5.67,5.5,2.54,5.5,5.67Z" style="fill: #8d251c;"/>
      <path d="m48.03,116.8c0,3.13-2.46,5.67-5.5,5.67s-5.5-2.54-5.5-5.67,2.46-5.67,5.5-5.67,5.5,2.54,5.5,5.67Z" style="fill: #44161d;"/>
      <path d="m67.43,179.46c0,1.29-1.01,2.33-2.26,2.33s-2.26-1.04-2.26-2.33,1.01-2.33,2.26-2.33,2.26,1.04,2.26,2.33Z" style="fill: #44161d;"/>
      <path d="m57.41,148.8c0,1.29-1.01,2.33-2.26,2.33s-2.26-1.04-2.26-2.33,1.01-2.33,2.26-2.33,2.26,1.04,2.26,2.33Z" style="fill: #44161d;"/>
      <path d="m63.88,120.13c0,1.29-1.01,2.33-2.26,2.33s-2.26-1.04-2.26-2.33,1.01-2.33,2.26-2.33,2.26,1.04,2.26,2.33Z" style="fill: #44161d;"/>
      <path d="m45.44,157.8c0,1.29-1.01,2.33-2.26,2.33s-2.26-1.04-2.26-2.33,1.01-2.33,2.26-2.33,2.26,1.04,2.26,2.33Z" style="fill: #44161d;"/>
      <path d="m55.79,191.13c0,1.29-1.01,2.33-2.26,2.33s-2.26-1.04-2.26-2.33,1.01-2.33,2.26-2.33,2.26,1.04,2.26,2.33Z" style="fill: #44161d;"/>
      <path d="m76.27,196.13c0,1.29-1.01,2.33-2.26,2.33s-2.26-1.04-2.26-2.33,1.01-2.33,2.26-2.33,2.26,1.04,2.26,2.33Z" style="fill: #44161d;"/>
      <path d="m62.66,163.46c0,2.26-1.77,4.08-3.96,4.08s-3.96-1.83-3.96-4.08,1.77-4.08,3.96-4.08,3.96,1.83,3.96,4.08Z" style="fill: #44161d;"/>
      <path d="m49,145.46c0,2.26-1.77,4.08-3.96,4.08s-3.96-1.83-3.96-4.08,1.77-4.08,3.96-4.08,3.96,1.83,3.96,4.08Z" style="fill: #8d251c;"/>
      <path d="m62.58,133.46c0,2.26-1.77,4.08-3.96,4.08s-3.96-1.83-3.96-4.08,1.77-4.08,3.96-4.08,3.96,1.83,3.96,4.08Z" style="fill: #44161d;"/>
      <path d="m57.96,203.46c0,2.54-2.38,4.59-5.32,4.59s-5.32-2.05-5.32-4.59,2.38-4.59,5.32-4.59,5.32,2.05,5.32,4.59Z" style="fill: #44161d;"/>
      <path d="m73.27,159.13c0,1.83-1.44,3.32-3.22,3.32s-3.22-1.48-3.22-3.32,1.44-3.32,3.22-3.32,3.22,1.48,3.22,3.32Z" style="fill: #8d251c;"/>
      <path d="m85.49,191.13c0,1.83-1.44,3.32-3.22,3.32s-3.22-1.48-3.22-3.32,1.44-3.32,3.22-3.32,3.22,1.48,3.22,3.32Z" style="fill: #44161d;"/>
      <path d="m46.49,195.13c0,1.83-1.44,3.32-3.22,3.32s-3.22-1.48-3.22-3.32,1.44-3.32,3.22-3.32,3.22,1.48,3.22,3.32Z" style="fill: #44161d;"/>
      <path d="m65.16,112.81c0,1.83-1.44,3.32-3.22,3.32s-3.22-1.48-3.22-3.32,1.44-3.32,3.22-3.32,3.22,1.48,3.22,3.32Z" style="fill: #8d251c;"/>
      <path d="m75.23,144.13c0,2.26-1.77,4.08-3.96,4.08s-3.96-1.83-3.96-4.08,1.77-4.08,3.96-4.08,3.96,1.83,3.96,4.08Z" style="fill: #b44819;"/>
      <path d="m73.09,123.48c-5.84-16.24-25.66-5.59-26.79,8.09-1.02,12.3,12.26,29.9,24.97,20.19,5.88-4.49,6.01-12.04,4.52-19.12-.69-3.27-1.73-6.45-2.7-9.16Z" style="fill: #b44819; opacity: .5;"/>
      <path d="m48.53,171.9c6.61-15.93-14.89-22.26-24.84-13.13-8.95,8.2-11.07,30.39,4.64,32.36,7.26.91,12.4-4.47,16.05-10.67,1.69-2.86,3.05-5.9,4.16-8.57Z" style="fill: #b44819; opacity: .5;"/>
      <path d="m72.06,184.19c11.49-14.91-9.78-29.59-22.96-23.28-11.85,5.67-20.26,29-4,36.85,7.52,3.63,14.52-.36,20.14-5.77,2.6-2.5,4.9-5.31,6.82-7.8Z" style="fill: #b44819; opacity: .3;"/>
      <path d="m56.68,139.42c-8.36-12.36-23.98.92-22.34,12.66,1.48,10.55,16.74,22.42,26.21,11.49,4.38-5.05,3.03-11.43.33-17.05-1.25-2.6-2.79-5.03-4.19-7.1Z" style="fill: #b44819; opacity: .3;"/>
      <path d="m67.8,169.45c20.82,2.88,18.17,42.93-3.65,35.91-16.44-5.29-17.42-38.82,3.65-35.91Z" style="fill: #b44819; opacity: .3;"/>
      <path d="m65.27,157.13c14.32-15.84,44.48,9.56,26.31,23.84-13.7,10.76-40.8-7.81-26.31-23.84Z" style="fill: #b44819; opacity: .2;"/>
      <path d="m63.62,113.34c11.19,18.33-20.35,41.88-29.09,20.11-6.59-16.4,17.77-38.66,29.09-20.11Z" style="fill: #b44819; opacity: .2;"/>
      <path d="m50.94,133.13c0,3.13-2.46,5.67-5.5,5.67s-5.5-2.54-5.5-5.67,2.46-5.67,5.5-5.67,5.5,2.54,5.5,5.67Z" style="fill: #44161d;"/>
      <path d="m81.49,170.8c0,2.54-2.38,4.59-5.32,4.59s-5.32-2.05-5.32-4.59,2.38-4.59,5.32-4.59,5.32,2.05,5.32,4.59Z" style="fill: #44161d;"/>
      <path d="m57.56,164.8c0,2.54-2.38,4.59-5.32,4.59s-5.32-2.05-5.32-4.59,2.38-4.59,5.32-4.59,5.32,2.05,5.32,4.59Z" style="fill: #44161d;"/>
      <path d="m40.59,168.13c0,2.54-2.38,4.59-5.32,4.59s-5.32-2.05-5.32-4.59,2.38-4.59,5.32-4.59,5.32,2.05,5.32,4.59Z" style="fill: #44161d;"/>
      <path d="m39.13,148.8c0,1.46-1.37,2.65-3.07,2.65s-3.07-1.18-3.07-2.65,1.37-2.65,3.07-2.65,3.07,1.19,3.07,2.65Z" style="fill: #44161d;"/>
      <path d="m59.83,150.8c0,1.46-1.37,2.65-3.07,2.65s-3.07-1.18-3.07-2.65,1.37-2.65,3.07-2.65,3.07,1.19,3.07,2.65Z" style="fill: #44161d;"/>
      <path d="m48.19,185.46c0,1.46-1.37,2.65-3.07,2.65s-3.07-1.18-3.07-2.65,1.37-2.65,3.07-2.65,3.07,1.19,3.07,2.65Z" style="fill: #44161d;"/>
      <path d="m59.35,192.13c0,1.46-1.37,2.65-3.07,2.65s-3.07-1.18-3.07-2.65,1.37-2.65,3.07-2.65,3.07,1.19,3.07,2.65Z" style="fill: #44161d;"/>
    </g>
    <g id="StrawM">
      <rect x="-35.89" y="95.38" width="205.67" height="10.56" transform="translate(-47.68 139.08) rotate(-74.91)" style="fill: #3d0506; opacity: .5;"/>
      <rect x="46.52" y="32.24" width="74.88" height="10.56" transform="translate(25.87 108.82) rotate(-74.91)" style="fill: #3d0506;"/>
    </g>
    <path id="LightM3" d="m50.64,208.06c-41.63-10.07-28.95-49.29-19.37-70.93,9.58-21.64,0-63,0-63l21.38.58c-.92-3.12,11.52,31.71-9.38,65.42-31,50,7.37,67.93,7.37,67.93Z" style="fill: #fff; opacity: .4;"/>
    <path id="LightM2" d="m88.27,74.13s-13,42,2,71c0,0-23.92-12.08-12-71h10Z" style="fill: #fff; opacity: .4;"/>
    <path id="LightM" d="m57.27,239.13h-6v-19h6v19Z" style="fill: #fff; opacity: .4;"/>
    <path id="RimM" d="m107.27,74.29c0,1.47-1.84,2.67-4.1,2.67H10.88c-2.26,0-4.1-1.19-4.1-2.67h0c0-1.47,1.84-2.67,4.1-2.67h92.29c2.26,0,4.1,1.19,4.1,2.67h0Z" style="fill: #bcb5aa;"/>
  </g>
</svg>