<?xml version="1.0" encoding="UTF-8"?>
<svg id="Small" data-name="Small" xmlns="http://www.w3.org/2000/svg" viewBox="0 0 104.63 223.63">
  <g id="Small">
    <path id="BodySmall" d="m85.96,220.96H18.81C-.33,211.24-1.17,117.66,1.14,99.96h102.49c2.32,17.7,1.47,111.28-17.67,121Z" style="fill: #d3ccbe;"/>
    <path id="LiqSmall" d="m10.44,163.02c-.93-11.53-1.4-23.54-1.53-34.06h88.18c-.13,10.53-.6,22.53-1.53,34.06-1.6,19.85-4.12,33.4-6.83,41.94H17.27c-2.7-8.54-5.22-22.09-6.83-41.94Z" style="fill: #3d0506;"/>
    <g id="BubblesSmall">
      <path d="m54.39,170.98c0,3.13-2.42,5.67-5.41,5.67s-5.41-2.54-5.41-5.67,2.42-5.67,5.41-5.67,5.41,2.54,5.41,5.67Z" style="fill: #44161d;"/>
      <path d="m72.22,147.64c0,3.13-2.42,5.67-5.41,5.67s-5.41-2.54-5.41-5.67,2.42-5.67,5.41-5.67,5.41,2.54,5.41,5.67Z" style="fill: #b44819;"/>
      <path d="m69.35,193.98c0,3.13-2.42,5.67-5.41,5.67s-5.41-2.54-5.41-5.67,2.42-5.67,5.41-5.67,5.41,2.54,5.41,5.67Z" style="fill: #8d251c;"/>
      <path d="m66.81,173.98c0,1.29-1,2.33-2.23,2.33s-2.23-1.04-2.23-2.33,1-2.33,2.23-2.33,2.23,1.04,2.23,2.33Z" style="fill: #44161d;"/>
      <path d="m56.94,143.31c0,1.29-1,2.33-2.23,2.33s-2.23-1.04-2.23-2.33,1-2.33,2.23-2.33,2.23,1.04,2.23,2.33Z" style="fill: #44161d;"/>
      <path d="m45.16,152.31c0,1.29-1,2.33-2.23,2.33s-2.23-1.04-2.23-2.33,1-2.33,2.23-2.33,2.23,1.04,2.23,2.33Z" style="fill: #44161d;"/>
      <path d="m55.35,185.64c0,1.29-1,2.33-2.23,2.33s-2.23-1.04-2.23-2.33,1-2.33,2.23-2.33,2.23,1.04,2.23,2.33Z" style="fill: #44161d;"/>
      <path d="m75.51,190.64c0,1.29-1,2.33-2.23,2.33s-2.23-1.04-2.23-2.33,1-2.33,2.23-2.33,2.23,1.04,2.23,2.33Z" style="fill: #44161d;"/>
      <path d="m62.11,157.98c0,2.26-1.75,4.08-3.9,4.08s-3.9-1.83-3.9-4.08,1.75-4.08,3.9-4.08,3.9,1.83,3.9,4.08Z" style="fill: #44161d;"/>
      <path d="m48.66,139.98c0,2.26-1.75,4.08-3.9,4.08s-3.9-1.83-3.9-4.08,1.75-4.08,3.9-4.08,3.9,1.83,3.9,4.08Z" style="fill: #8d251c;"/>
      <path d="m54.36,128.96c.42,1.78,1.95,3.1,3.77,3.1s3.35-1.32,3.77-3.1h-7.54Z" style="fill: #44161d;"/>
      <path d="m57.48,197.98c0,2.54-2.35,4.59-5.24,4.59s-5.24-2.05-5.24-4.59,2.35-4.59,5.24-4.59,5.24,2.05,5.24,4.59Z" style="fill: #44161d;"/>
      <path d="m72.55,153.64c0,1.83-1.42,3.32-3.17,3.32s-3.17-1.48-3.17-3.32,1.42-3.32,3.17-3.32,3.17,1.48,3.17,3.32Z" style="fill: #8d251c;"/>
      <path d="m84.58,185.64c0,1.83-1.42,3.32-3.17,3.32s-3.17-1.48-3.17-3.32,1.42-3.32,3.17-3.32,3.17,1.48,3.17,3.32Z" style="fill: #44161d;"/>
      <path d="m46.19,189.64c0,1.83-1.42,3.32-3.17,3.32s-3.17-1.48-3.17-3.32,1.42-3.32,3.17-3.32,3.17,1.48,3.17,3.32Z" style="fill: #44161d;"/>
      <path d="m74.48,138.64c0,2.26-1.75,4.08-3.9,4.08s-3.9-1.83-3.9-4.08,1.75-4.08,3.9-4.08,3.9,1.83,3.9,4.08Z" style="fill: #b44819;"/>
      <path d="m46.02,128.96c.97,11.94,13,26.28,24.57,17.31,5.3-4.11,5.85-10.78,4.78-17.31h-29.35Z" style="fill: #b44819; opacity: .5;"/>
      <path d="m48.2,166.41c6.51-15.93-14.65-22.26-24.45-13.13-8.81,8.2-10.9,30.39,4.56,32.36,7.15.92,12.21-4.47,15.8-10.67,1.66-2.87,3-5.9,4.09-8.57Z" style="fill: #b44819; opacity: .5;"/>
      <path d="m71.36,178.7c11.31-14.91-9.62-29.59-22.6-23.28-11.67,5.67-19.95,29-3.93,36.85,7.4,3.63,14.29-.36,19.82-5.77,2.56-2.5,4.82-5.31,6.72-7.8Z" style="fill: #b44819; opacity: .3;"/>
      <path d="m56.22,133.94c-8.23-12.36-23.61.92-21.99,12.66,1.46,10.55,16.48,22.42,25.8,11.49,4.31-5.05,2.98-11.43.32-17.05-1.23-2.6-2.75-5.03-4.13-7.1Z" style="fill: #b44819; opacity: .3;"/>
      <path d="m67.16,163.96c20.5,2.88,17.88,42.93-3.59,35.91-16.19-5.29-17.15-38.82,3.59-35.91Z" style="fill: #b44819; opacity: .3;"/>
      <path d="m64.68,151.64c14.1-15.84,43.79,9.56,25.9,23.84-13.49,10.76-40.17-7.81-25.9-23.84Z" style="fill: #b44819; opacity: .2;"/>
      <path d="m34.84,128.96c5.46,11.95,18.32,8.53,25.49,0h-25.49Z" style="fill: #b44819; opacity: .2;"/>
      <path d="m39.9,128.96c.57,2.49,2.7,4.35,5.26,4.35s4.69-1.86,5.26-4.35h-10.52Z" style="fill: #44161d;"/>
      <path d="m80.64,165.31c0,2.54-2.35,4.59-5.24,4.59s-5.24-2.05-5.24-4.59,2.35-4.59,5.24-4.59,5.24,2.05,5.24,4.59Z" style="fill: #44161d;"/>
      <path d="m57.08,159.31c0,2.54-2.35,4.59-5.24,4.59s-5.24-2.05-5.24-4.59,2.35-4.59,5.24-4.59,5.24,2.05,5.24,4.59Z" style="fill: #44161d;"/>
      <path d="m40.39,162.64c0,2.54-2.35,4.59-5.24,4.59s-5.24-2.05-5.24-4.59,2.35-4.59,5.24-4.59,5.24,2.05,5.24,4.59Z" style="fill: #44161d;"/>
      <path d="m38.95,143.31c0,1.46-1.35,2.65-3.02,2.65s-3.02-1.18-3.02-2.65,1.35-2.65,3.02-2.65,3.02,1.19,3.02,2.65Z" style="fill: #44161d;"/>
      <path d="m59.32,145.31c0,1.46-1.35,2.65-3.02,2.65s-3.02-1.19-3.02-2.65,1.35-2.65,3.02-2.65,3.02,1.19,3.02,2.65Z" style="fill: #44161d;"/>
      <path d="m47.86,179.97c0,1.46-1.35,2.65-3.02,2.65s-3.02-1.19-3.02-2.65,1.35-2.65,3.02-2.65,3.02,1.19,3.02,2.65Z" style="fill: #44161d;"/>
      <path d="m58.85,186.64c0,1.46-1.35,2.65-3.02,2.65s-3.02-1.18-3.02-2.65,1.35-2.65,3.02-2.65,3.02,1.19,3.02,2.65Z" style="fill: #44161d;"/>
    </g>
    <path d="m29.53,219.96c-14.43-31.82-12.04-102.47-11.2-120h21.21v120h-10.02Z" style="fill: #fff; opacity: .4;"/>
    <g id="StrawSmall">
      <rect x="28.67" y="-1.04" width="10.56" height="199.39" transform="translate(-19.51 9.06) rotate(-11.83)" style="fill: #3d0506; opacity: .5;"/>
      <rect x="18.33" y=".03" width="10.56" height="98.67" transform="translate(-9.63 5.9) rotate(-11.84)" style="fill: #3d0506;"/>
    </g>
    <path id="LightSmall" d="m80.55,182.32c4-23.64-6-82.36-6-82.36l16,1c3,35-10,81.36-10,81.36Z" style="fill: #fff; opacity: .4;"/>
    <path id="RimSmall" d="m104.63,98.29c0,1.47-.87,2.67-1.95,2.67H1.95c-1.07,0-1.95-1.19-1.95-2.67h0c0-1.47.87-2.67,1.95-2.67h100.74c1.07,0,1.95,1.19,1.95,2.67h0Z" style="fill: #bcb5aa;"/>
    <path id="BottomSmall" d="m90.55,220.96c0,1.47-1.38,2.67-3.09,2.67H17.97c-1.71,0-3.09-1.19-3.09-2.67h0c0-1.47,1.38-2.67,3.09-2.67h69.49c1.71,0,3.09,1.19,3.09,2.67h0Z" style="fill: #bcb5aa;"/>
  </g>
</svg>