<?xml version="1.0" encoding="UTF-8"?>
<svg id="Small" xmlns="http://www.w3.org/2000/svg" viewBox="0 0 111.5 230">
  <defs>
    <style>
      .cls-11 {
        fill: #d3ccbe;
      }

      .cls-12 {
        fill: #fff;
        opacity: .4;
      }

      .cls-13 {
        fill: #44161d;
      }

      .cls-14, .cls-15 {
        fill: #3d0506;
      }

      .cls-16, .cls-15 {
        opacity: .5;
      }

      .cls-16, .cls-17 {
        fill: #b44819;
      }

      .cls-18 {
        fill: #8d251c;
      }

      .cls-19 {
        fill: #bcb5aa;
      }
    </style>
  </defs>
  <path id="BackSmall" class="cls-11" d="m89.89,224.51H22.74C3.6,214.79,2.75,121.21,5.07,103.51h102.49c2.32,17.7,1.47,111.28-17.67,121Z"/>
  <path id="LiquidSmall" class="cls-14" d="m14.37,166.57c-.93-11.53-1.4-23.54-1.53-34.06h88.18c-.13,10.53-.6,22.53-1.53,34.06-1.6,19.85-4.12,33.4-6.83,41.94H21.19c-2.7-8.54-5.22-22.09-6.83-41.94Z"/>
  <path id="BubLS" class="cls-18" d="m73.28,197.52c0,3.13-2.42,5.67-5.41,5.67s-5.41-2.54-5.41-5.67,2.42-5.67,5.41-5.67,5.41,2.54,5.41,5.67Zm-24.59-58.08c-2.15,0-3.9,1.83-3.9,4.08s1.75,4.08,3.9,4.08,3.9-1.83,3.9-4.08-1.75-4.08-3.9-4.08Zm24.62,14.43c-1.75,0-3.17,1.48-3.17,3.32s1.42,3.32,3.17,3.32,3.17-1.48,3.17-3.32-1.42-3.32-3.17-3.32Z"/>
  <path id="BUBOS" class="cls-17" d="m76.15,151.19c0,3.13-2.42,5.67-5.41,5.67s-5.41-2.54-5.41-5.67,2.42-5.67,5.41-5.67,5.41,2.54,5.41,5.67Zm-1.64-13.08c-2.15,0-3.9,1.83-3.9,4.08s1.75,4.08,3.9,4.08,3.9-1.83,3.9-4.08-1.75-4.08-3.9-4.08Z"/>
  <path id="BubPS" class="cls-16" d="m79.3,132.51c1.07,6.53.52,13.21-4.78,17.31-11.57,8.97-23.59-5.38-24.57-17.31h29.35Zm-27.17,37.45c6.51-15.93-14.65-22.26-24.45-13.13-8.81,8.2-10.9,30.39,4.56,32.36,7.15.92,12.21-4.47,15.8-10.67,1.66-2.87,3-5.9,4.09-8.57Zm23.16,12.29c11.31-14.91-9.62-29.59-22.6-23.28-11.67,5.67-19.95,29-3.93,36.85,7.4,3.63,14.29-.36,19.82-5.77,2.56-2.5,4.82-5.31,6.72-7.8Zm-15.14-44.77c-8.23-12.36-23.61.92-21.99,12.66,1.46,10.55,16.48,22.42,25.8,11.49,4.31-5.05,2.98-11.43.32-17.05-1.23-2.6-2.75-5.03-4.13-7.1Zm7.35,65.94c21.47,7.02,24.09-33.03,3.59-35.91-20.74-2.92-19.78,30.62-3.59,35.91Zm27-24.4c17.89-14.28-11.8-39.68-25.9-23.84-14.27,16.03,12.41,34.6,25.9,23.84Zm-55.73-46.51c5.46,11.95,18.32,8.53,25.49,0h-25.49Z"/>
  <path id="BubMS" class="cls-13" d="m58.32,174.52c0,3.13-2.42,5.67-5.41,5.67s-5.41-2.54-5.41-5.67,2.42-5.67,5.41-5.67,5.41,2.54,5.41,5.67Zm10.19.67c-1.23,0-2.23,1.04-2.23,2.33s1,2.33,2.23,2.33,2.23-1.04,2.23-2.33-1-2.33-2.23-2.33Zm-9.87-30.67c-1.23,0-2.23,1.04-2.23,2.33s1,2.33,2.23,2.33,2.23-1.04,2.23-2.33-1-2.33-2.23-2.33Zm-11.78,9c-1.23,0-2.23,1.04-2.23,2.33s1,2.33,2.23,2.33,2.23-1.04,2.23-2.33-1-2.33-2.23-2.33Zm10.19,33.33c-1.23,0-2.23,1.04-2.23,2.33s1,2.33,2.23,2.33,2.23-1.04,2.23-2.33-1-2.33-2.23-2.33Zm20.16,5c-1.23,0-2.23,1.04-2.23,2.33s1,2.33,2.23,2.33,2.23-1.04,2.23-2.33-1-2.33-2.23-2.33Zm-15.07-34.41c-2.15,0-3.9,1.83-3.9,4.08s1.75,4.08,3.9,4.08,3.9-1.83,3.9-4.08-1.75-4.08-3.9-4.08Zm-3.85-24.93c.42,1.78,1.95,3.1,3.77,3.1s3.35-1.32,3.77-3.1h-7.54Zm-2.12,64.42c-2.89,0-5.24,2.05-5.24,4.59s2.35,4.59,5.24,4.59,5.24-2.05,5.24-4.59-2.35-4.59-5.24-4.59Zm29.17-11.06c-1.75,0-3.17,1.48-3.17,3.32s1.42,3.32,3.17,3.32,3.17-1.48,3.17-3.32-1.42-3.32-3.17-3.32Zm-38.39,4c-1.75,0-3.17,1.48-3.17,3.32s1.42,3.32,3.17,3.32,3.17-1.48,3.17-3.32-1.42-3.32-3.17-3.32Zm-3.12-57.36c.57,2.49,2.7,4.35,5.26,4.35s4.69-1.86,5.26-4.35h-10.52Zm35.5,31.76c-2.89,0-5.24,2.05-5.24,4.59s2.35,4.59,5.24,4.59,5.24-2.05,5.24-4.59-2.35-4.59-5.24-4.59Zm-23.56-6c-2.89,0-5.24,2.05-5.24,4.59s2.35,4.59,5.24,4.59,5.24-2.05,5.24-4.59-2.35-4.59-5.24-4.59Zm-16.7,3.33c-2.89,0-5.24,2.05-5.24,4.59s2.35,4.59,5.24,4.59,5.24-2.05,5.24-4.59-2.35-4.59-5.24-4.59Zm.78-17.39c-1.67,0-3.02,1.19-3.02,2.65s1.35,2.65,3.02,2.65,3.02-1.18,3.02-2.65-1.35-2.65-3.02-2.65Zm20.38,2c-1.67,0-3.02,1.19-3.02,2.65s1.35,2.65,3.02,2.65,3.02-1.19,3.02-2.65-1.35-2.65-3.02-2.65Zm-11.46,34.67c-1.67,0-3.02,1.19-3.02,2.65s1.35,2.65,3.02,2.65,3.02-1.19,3.02-2.65-1.35-2.65-3.02-2.65Zm10.99,6.67c-1.67,0-3.02,1.19-3.02,2.65s1.35,2.65,3.02,2.65,3.02-1.18,3.02-2.65-1.35-2.65-3.02-2.65Z"/>
  <path id="straws" class="cls-15" d="m63.5,198.7l-10.34,2.17L12.25,5.71l10.34-2.17,40.91,195.15Z"/>
  <path id="StrawSmall" class="cls-14" d="m32.5,102.28L12.25,5.71l10.34-2.17,20.24,96.57-10.34,2.17Z"/>
  <path id="LitSmall" class="cls-12" d="m33.46,223.51c-14.43-31.82-12.04-102.47-11.2-120h21.21v120h-10.02Zm61.02-119l-16-1s10,58.72,6,82.36c0,0,13-46.36,10-81.36Z"/>
  <path id="RImSMall" class="cls-19" d="m108.56,101.84c0,1.47-.87,2.67-1.95,2.67H5.87c-1.07,0-1.95-1.19-1.95-2.67h0c0-1.47.87-2.67,1.95-2.67h100.74c1.07,0,1.95,1.19,1.95,2.67h0Z"/>
  <path id="BottomSmall" class="cls-19" d="m94.47,224.51c0,1.47-1.38,2.67-3.09,2.67H21.9c-1.71,0-3.09-1.19-3.09-2.67h0c0-1.47,1.38-2.67,3.09-2.67h69.49c1.71,0,3.09,1.19,3.09,2.67h0Z"/>
</svg>