<?xml version="1.0" encoding="UTF-8"?>
<svg id="Square" data-name="Square" xmlns="http://www.w3.org/2000/svg" viewBox="0 0 132 354">
  <g id="Square">
    <path id="BodyS" d="m132,340.47c0,7.47-6.72,13.53-15,13.53H15c-8.28,0-15-6.06-15-13.53V91.54c0-7.47,30.72-68.54,39-68.54h54c8.28,0,39,61.07,39,68.54v248.93Z" style="fill: #491d1a;"/>
    <rect id="BottleTopS" x="27.5" y="18" width="77" height="15" rx="7" ry="7" style="fill: #491d1a;"/>
    <path id="LiquidS" d="m120.83,336c0,3.87-3.13,7-7,7H18.83c-3.87,0-7-3.13-7-7V99c0-3.87,3.13-7,7-7h95c3.87,0,7,3.13,7,7v237Z" style="fill: #270400;"/>
    <polygon id="LightS" points="73.83 34 92.83 34 119.83 86 73.83 34" style="fill: #e0ddce;"/>
    <polygon id="HighlightS" points="38.83 34 11.83 85 11.83 340 30.83 340 30.83 88 38.83 34" style="fill: #fff; opacity: .2;"/>
    <path id="LabelS" d="m120.83,211.52c0,3.03-3.28,5.48-7.33,5.48H17.16c-4.05,0-7.33-2.45-7.33-5.48v-72.04c0-3.03,3.28-5.48,7.33-5.48h96.34c4.05,0,7.33,2.45,7.33,5.48v72.04Z" style="fill: #ceac93;"/>
    <rect id="LidS" x="23" width="86" height="24" rx="7" ry="7" style="fill: #ed6b43;"/>
    <path id="ShadowS" d="m23,13v4c0,3.87,3.13,7,7,7h72c3.87,0,7-3.13,7-7v-4H23Z" style="fill: #ce4e28;"/>
    <g id="BubblesS">
      <path d="m50.15,196.83c0,5.8-4.62,10.5-10.32,10.5s-10.32-4.7-10.32-10.5,4.62-10.5,10.32-10.5,10.32,4.7,10.32,10.5Z" style="fill: #e0ddce;"/>
      <path d="m36.26,171.78c0,4.69-3.73,8.48-8.33,8.48s-8.33-3.8-8.33-8.48,3.73-8.48,8.33-8.48,8.33,3.8,8.33,8.48Z" style="fill: #e0ddce;"/>
      <path d="m60.87,175.02c0,4.69-3.73,8.48-8.33,8.48s-8.33-3.8-8.33-8.48,3.73-8.48,8.33-8.48,8.33,3.8,8.33,8.48Z" style="fill: #e0ddce;"/>
      <path d="m75.5,191.18c0,3.99-3.18,7.22-7.09,7.22s-7.09-3.23-7.09-7.22,3.18-7.22,7.09-7.22,7.09,3.23,7.09,7.22Z" style="fill: #e0ddce;"/>
      <path d="m85.03,169.36c0,2.65-2.11,4.8-4.71,4.8s-4.71-2.15-4.71-4.8,2.11-4.8,4.71-4.8,4.71,2.15,4.71,4.8Z" style="fill: #e0ddce;"/>
      <path d="m45.79,161.28c0,2.45-1.95,4.44-4.37,4.44s-4.37-1.99-4.37-4.44,1.95-4.44,4.37-4.44,4.37,1.99,4.37,4.44Z" style="fill: #e0ddce;"/>
    </g>
  </g>
</svg>