<?xml version="1.0" encoding="UTF-8"?>
<svg id="Tall" data-name="Tall" xmlns="http://www.w3.org/2000/svg" viewBox="0 0 122 291.33">
  <g id="Tall">
    <path id="BodyT" d="m118.7,98c-1.37,18-6.45,59.24-10.17,87.91-6.95,53.53-11.76,86.81-19.98,97.7-1.13,1.5-2.91,2.39-4.79,2.39h-46.47c-1.88,0-3.66-.88-4.79-2.39-8.22-10.89-13.03-44.18-19.98-97.7-3.72-28.67-7.85-64.58-10.17-87.91h116.35Z" style="fill: #d3ccbe;"/>
    <path id="LiquidT" d="m107.73,124c-7.31,46.51-11.67,115.72-21.29,142.67-4.59,12.87-45.2,11.83-51.83,0-9.36-16.69-13.96-95.43-21.3-142.67h94.42Z" style="fill: #60232a;"/>
    <path id="MidT" d="m67.67,216c0,3.13-2.54,5.67-5.67,5.67s-5.67-2.54-5.67-5.67,2.54-5.67,5.67-5.67,5.67,2.54,5.67,5.67Zm-25.75-58.08c-2.25,0-4.08,1.83-4.08,4.08s1.83,4.08,4.08,4.08,4.08-1.83,4.08-4.08-1.83-4.08-4.08-4.08Zm9.33,76.1c-1.83,0-3.32,1.48-3.32,3.32s1.49,3.32,3.32,3.32,3.32-1.48,3.32-3.32-1.49-3.32-3.32-3.32Zm8.08-107.98c-1.83,0-3.32,1.48-3.32,3.32s1.49,3.32,3.32,3.32,3.32-1.48,3.32-3.32-1.49-3.32-3.32-3.32Z" style="fill: #8d251c;"/>
    <path id="BubLT" d="m70.67,169.67c0,3.13-2.54,5.67-5.67,5.67s-5.67-2.54-5.67-5.67,2.54-5.67,5.67-5.67,5.67,2.54,5.67,5.67Zm-10.08,78.92c-2.25,0-4.08,1.83-4.08,4.08s1.83,4.08,4.08,4.08,4.08-1.83,4.08-4.08-1.83-4.08-4.08-4.08Z" style="fill: #b44819;"/>
    <path id="DeetT3" d="m73.62,149.18c1.54,7.08,1.4,14.64-4.66,19.12-13.1,9.7-26.79-7.89-25.74-20.19,1.16-13.68,21.59-24.34,27.61-8.09,1.01,2.72,2.08,5.89,2.79,9.16Zm1.79,102.26c6.81-15.93-15.34-22.26-25.6-13.13-9.22,8.2-11.41,30.39,4.78,32.36,7.48.91,12.78-4.47,16.54-10.67,1.74-2.86,3.14-5.9,4.28-8.57Z" style="fill: #b44819; opacity: .5;"/>
    <path id="DeetT2" d="m58.61,208.53c-5.79,5.41-13,9.4-20.75,5.77-16.77-7.85-8.1-31.18,4.12-36.85,13.59-6.3,35.5,8.37,23.66,23.28-1.98,2.5-4.35,5.3-7.03,7.8Zm-4.7-52.57c-8.62-12.36-24.72.92-23.03,12.66,1.52,10.55,17.25,22.42,27.01,11.49,4.51-5.05,3.12-11.43.34-17.05-1.29-2.6-2.88-5.03-4.32-7.1Zm7.7,75.94c22.48,7.02,25.22-33.03,3.76-35.91-21.71-2.92-20.71,30.62-3.76,35.91Z" style="fill: #b44819; opacity: .3;"/>
    <path id="deetT" d="m62.77,173.66c14.76-15.84,45.85,9.56,27.12,23.84-14.12,10.76-42.06-7.81-27.12-23.84Zm-2.99,74.33c9.01,21.76,41.52-1.79,29.98-20.11-11.67-18.54-36.77,3.71-29.98,20.11Z" style="fill: #b44819; opacity: .2;"/>
    <path id="BubT" d="m52,193c0,3.13-2.54,5.67-5.67,5.67s-5.67-2.54-5.67-5.67,2.54-5.67,5.67-5.67,5.67,2.54,5.67,5.67Zm-12.67-65.33c-3.13,0-5.67,2.54-5.67,5.67s2.54,5.67,5.67,5.67,5.67-2.54,5.67-5.67-2.54-5.67-5.67-5.67Zm23.33,66c-1.29,0-2.33,1.04-2.33,2.33s1.04,2.33,2.33,2.33,2.33-1.04,2.33-2.33-1.04-2.33-2.33-2.33Zm-10.33-30.67c-1.29,0-2.33,1.04-2.33,2.33s1.04,2.33,2.33,2.33,2.33-1.04,2.33-2.33-1.04-2.33-2.33-2.33Zm6.67-28.67c-1.29,0-2.33,1.04-2.33,2.33s1.04,2.33,2.33,2.33,2.33-1.04,2.33-2.33-1.04-2.33-2.33-2.33Zm-19,37.67c-1.29,0-2.33,1.04-2.33,2.33s1.04,2.33,2.33,2.33,2.33-1.04,2.33-2.33-1.04-2.33-2.33-2.33Zm10.67,33.33c-1.29,0-2.33,1.04-2.33,2.33s1.04,2.33,2.33,2.33,2.33-1.04,2.33-2.33-1.04-2.33-2.33-2.33Zm10.67,19.67c-1.29,0-2.33,1.04-2.33,2.33s1.04,2.33,2.33,2.33,2.33-1.04,2.33-2.33-1.04-2.33-2.33-2.33Zm-5.33-49.08c-2.25,0-4.08,1.83-4.08,4.08s1.83,4.08,4.08,4.08,4.08-1.83,4.08-4.08-1.83-4.08-4.08-4.08Zm-.08-30c-2.25,0-4.08,1.83-4.08,4.08s1.83,4.08,4.08,4.08,4.08-1.83,4.08-4.08-1.83-4.08-4.08-4.08Zm-6.17,69.49c-3.03,0-5.49,2.05-5.49,4.59s2.46,4.59,5.49,4.59,5.49-2.05,5.49-4.59-2.46-4.59-5.49-4.59Zm10.26,23.94c-1.83,0-3.32,1.48-3.32,3.32s1.49,3.32,3.32,3.32,3.32-1.48,3.32-3.32-1.49-3.32-3.32-3.32Zm-7.33,20.67c-1.83,0-3.32,1.48-3.32,3.32s1.49,3.32,3.32,3.32,3.32-1.48,3.32-3.32-1.48-3.32-3.32-3.32Zm-10.35-116.02c-3.13,0-5.67,2.54-5.67,5.67s2.54,5.67,5.67,5.67,5.67-2.54,5.67-5.67-2.54-5.67-5.67-5.67Zm31.67,38.74c-3.03,0-5.48,2.05-5.48,4.59s2.46,4.59,5.48,4.59,5.49-2.05,5.49-4.59-2.46-4.59-5.49-4.59Zm-24.67-6c-3.03,0-5.49,2.05-5.49,4.59s2.46,4.59,5.49,4.59,5.49-2.05,5.49-4.59-2.46-4.59-5.49-4.59Zm23.42,67.33c-3.03,0-5.49,2.05-5.49,4.59s2.46,4.59,5.49,4.59,5.49-2.05,5.49-4.59-2.46-4.59-5.49-4.59Zm-40.08-81.39c-1.75,0-3.16,1.19-3.16,2.65s1.42,2.65,3.16,2.65,3.16-1.18,3.16-2.65-1.42-2.65-3.16-2.65Zm21.33,2c-1.75,0-3.16,1.19-3.16,2.65s1.42,2.65,3.16,2.65,3.16-1.18,3.16-2.65-1.41-2.65-3.16-2.65Zm-12,34.67c-1.75,0-3.16,1.19-3.16,2.65s1.42,2.65,3.16,2.65,3.16-1.18,3.16-2.65-1.41-2.65-3.16-2.65Zm11.5,6.67c-1.75,0-3.16,1.19-3.16,2.65s1.42,2.65,3.16,2.65,3.16-1.18,3.16-2.65-1.42-2.65-3.16-2.65Z" style="fill: #44161d;"/>
    <path id="LightT" d="m60,285.33h-12.67c-23.33-34.67-27-187.33-27-187.33h19.33c-2,83.33,20.33,187.33,20.33,187.33Z" style="fill: #fff; opacity: .4;"/>
    <path id="LightT2" d="m80,282c3.33-30,14-184,14-184h10.67c-1.33,22.67-24.67,184-24.67,184Z" style="fill: #fff; opacity: .4;"/>
    <path id="RimT" d="m88.67,288.33c0,1.66-2.54,3-5.67,3h-45.33c-3.13,0-5.67-1.34-5.67-3h0c0-1.66,2.54-3,5.67-3h45.33c3.13,0,5.67,1.34,5.67,3h0Z" style="fill: #bcb5aa;"/>
    <g id="StrawT">
      <rect x="60.22" width="10.56" height="274.67" style="fill: #ce4e28; opacity: .4;"/>
      <rect x="60.22" width="10.56" height="100" style="fill: #ed6b43;"/>
    </g>
    <path id="BottomT" d="m122,98.33c0,.92-.75,1.67-1.67,1.67H1.67c-.92,0-1.67-.75-1.67-1.67h0c0-.92.75-1.67,1.67-1.67h118.67c.92,0,1.67.75,1.67,1.67h0Z" style="fill: #bcb5aa;"/>
  </g>
</svg>